<?xml version="1.0" encoding="utf-8"?>
<!-- Generator: Adobe Illustrator 24.1.1, SVG Export Plug-In . SVG Version: 6.00 Build 0)  -->
<svg version="1.1" id="Lager_1" xmlns="http://www.w3.org/2000/svg" xmlns:xlink="http://www.w3.org/1999/xlink" x="0px" y="0px"
	 viewBox="0 0 45.5 53" style="enable-background:new 0 0 45.5 53;" xml:space="preserve">
<style type="text/css">
	.st0{fill:url(#SVGID_1_);stroke:#2D3748;stroke-miterlimit:10;}
	.st1{fill:url(#SVGID_2_);stroke:#2D3748;stroke-width:0.75;stroke-miterlimit:10;}
	.st2{fill:url(#SVGID_3_);stroke:#2D3748;stroke-width:0.75;stroke-miterlimit:10;}
</style>
<g id="Lager_2_1_">
	<g id="Icons">
		<g id="Clear_Night">
			
				<linearGradient id="SVGID_1_" gradientUnits="userSpaceOnUse" x1="7.54" y1="10.7036" x2="31.1675" y2="34.331" gradientTransform="matrix(1 0 0 -1 0 56)">
				<stop  offset="0" style="stop-color:#00AEEF"/>
				<stop  offset="1" style="stop-color:#00BDF2"/>
			</linearGradient>
			<path class="st0" d="M23.2,51.8C11,51.8,1.1,41.9,1.1,29.7c0-9.9,6.5-18.5,16-21.2c0.4-0.1,0.9,0,1.2,0.3
				c0.3,0.3,0.4,0.7,0.3,1.1c-3,10.5,3,21.4,13.5,24.5c1.8,0.5,3.7,0.8,5.5,0.8c1.9,0,3.7-0.3,5.5-0.8c0.6-0.2,1.3,0.2,1.4,0.8
				c0.1,0.2,0.1,0.4,0,0.6C41.7,45.2,33,51.8,23.2,51.8z"/>
			
				<linearGradient id="SVGID_2_" gradientUnits="userSpaceOnUse" x1="33.9942" y1="35.265" x2="39.5247" y2="40.7955" gradientTransform="matrix(1 0 0 -1 0 56)">
				<stop  offset="0" style="stop-color:#FDB728"/>
				<stop  offset="1" style="stop-color:#FFCD23"/>
			</linearGradient>
			<path class="st1" d="M37.5,22.2c-0.4,1.5-1.1,1.5-1.5,0c-0.5-1.6-1.8-2.9-3.5-3.5c-1.5-0.4-1.5-1.1,0-1.5c1.7-0.5,3-1.8,3.5-3.5
				c0.4-1.5,1.1-1.5,1.5,0c0.5,1.7,1.8,3,3.5,3.5c1.5,0.4,1.5,1.1,0,1.5C39.4,19.2,38.1,20.5,37.5,22.2z"/>
			
				<linearGradient id="SVGID_3_" gradientUnits="userSpaceOnUse" x1="27.5361" y1="50.0038" x2="30.7661" y2="53.2337" gradientTransform="matrix(1 0 0 -1 0 56)">
				<stop  offset="0" style="stop-color:#FDB728"/>
				<stop  offset="1" style="stop-color:#FFCD23"/>
			</linearGradient>
			<path class="st2" d="M29.6,6.9c-0.2,0.9-0.6,0.9-0.9,0c-0.3-1-1.1-1.7-2.1-2.1c-0.9-0.2-0.9-0.6,0-0.9c1-0.3,1.7-1.1,2-2
				c0.2-0.9,0.6-0.9,0.9,0c0.3,1,1.1,1.7,2.1,2c0.9,0.2,0.9,0.6,0,0.9C30.7,5.1,29.9,5.9,29.6,6.9z"/>
		</g>
	</g>
</g>
</svg>
