<?xml version="1.0" encoding="utf-8"?>
<!-- Generator: Adobe Illustrator 24.1.1, SVG Export Plug-In . SVG Version: 6.00 Build 0)  -->
<svg version="1.1" id="Lager_1" xmlns="http://www.w3.org/2000/svg" xmlns:xlink="http://www.w3.org/1999/xlink" x="0px" y="0px"
	 viewBox="0 0 66.9 40.3" style="enable-background:new 0 0 66.9 40.3;" xml:space="preserve">
<style type="text/css">
	.st0{fill:url(#SVGID_1_);stroke:#2D3748;stroke-miterlimit:10;}
	.st1{fill:#FFFFFF;stroke:#2D3748;stroke-miterlimit:10;}
	.st2{fill:url(#SVGID_2_);stroke:#2D3748;stroke-miterlimit:10;}
</style>
<g id="Lager_2_1_">
	<g id="Icons">
		<g id="Party_Cloudy">
			
				<linearGradient id="SVGID_1_" gradientUnits="userSpaceOnUse" x1="38.903" y1="19.9663" x2="56.3984" y2="37.4617" gradientTransform="matrix(1 0 0 -1 0 42)">
				<stop  offset="0" style="stop-color:#FDB728"/>
				<stop  offset="1" style="stop-color:#FFCD23"/>
			</linearGradient>
			<circle class="st0" cx="47.7" cy="13.3" r="12.4"/>
			<path class="st1" d="M45.4,39.3c5.6,0.2,10.3-4.2,10.5-9.9c0.2-5.6-4.2-10.3-9.9-10.5c-0.2,0-0.4,0-0.6,0h-0.1
				c-1-8.9-9-15.4-17.9-14.4c-5.8,0.6-10.7,4.3-13.1,9.6h-0.2c-7,0-12.6,5.6-12.6,12.6s5.6,12.6,12.6,12.6H45.4z"/>
			
				<linearGradient id="SVGID_2_" gradientUnits="userSpaceOnUse" x1="38.5708" y1="0.141" x2="57.9704" y2="19.5502" gradientTransform="matrix(1 0 0 -1 0 42)">
				<stop  offset="0" style="stop-color:#D0E8F8"/>
				<stop  offset="1" style="stop-color:#E1EEF9"/>
			</linearGradient>
			<path class="st2" d="M39.3,39.4l19.7,0c3.5,0.1,6.5-2.6,6.6-6.1c0.1-3.5-2.6-6.5-6.1-6.6c-0.2,0-0.3,0-0.5,0h-0.1
				c-0.6-5.6-5.7-9.6-11.3-9c-3.6,0.4-6.7,2.7-8.2,6h-0.2c-4.4,0-7.9,3.5-7.9,7.9C31.4,35.8,35,39.4,39.3,39.4
				C39.3,39.4,39.3,39.4,39.3,39.4"/>
		</g>
	</g>
</g>
</svg>
