<?xml version="1.0" encoding="utf-8"?>
<!-- Generator: Adobe Illustrator 24.1.1, SVG Export Plug-In . SVG Version: 6.00 Build 0)  -->
<svg version="1.1" id="Lager_1" xmlns="http://www.w3.org/2000/svg" xmlns:xlink="http://www.w3.org/1999/xlink" x="0px" y="0px"
	 viewBox="0 0 67 45.1" style="enable-background:new 0 0 67 45.1;" xml:space="preserve">
<style type="text/css">
	.st0{fill:url(#SVGID_1_);stroke:#2D3748;stroke-miterlimit:10;}
	.st1{fill:url(#SVGID_2_);stroke:#2D3748;stroke-miterlimit:10;}
	.st2{fill:#FFFFFF;stroke:#2D3748;stroke-miterlimit:10;}
	.st3{fill:url(#SVGID_3_);stroke:#2D3748;stroke-width:0.75;stroke-miterlimit:10;}
	.st4{fill:url(#SVGID_4_);stroke:#2D3748;stroke-width:0.75;stroke-miterlimit:10;}
</style>
<g id="Lager_2_1_">
	<g id="Icons">
		<g id="Party_Cloudy_Night">
			
				<linearGradient id="SVGID_1_" gradientUnits="userSpaceOnUse" x1="42.2378" y1="23.7187" x2="57.2292" y2="38.7101" gradientTransform="matrix(1 0 0 -1 0 48)">
				<stop  offset="0" style="stop-color:#00AEEF"/>
				<stop  offset="1" style="stop-color:#00BDF2"/>
			</linearGradient>
			<path class="st0" d="M52.2,28.4c-7.7,0.1-14.1-6.2-14.2-13.9C38,8.2,42.2,2.6,48.3,0.9c0.3-0.1,0.5,0,0.7,0.2
				c0.2,0.2,0.3,0.5,0.2,0.7c-1.9,6.7,1.9,13.6,8.6,15.6c1.1,0.3,2.3,0.5,3.5,0.5c1.2,0,2.3-0.2,3.4-0.5c0.4-0.1,0.8,0,0.9,0.4
				c0.1,0.2,0.1,0.3,0,0.5C63.9,24.3,58.4,28.4,52.2,28.4z"/>
			
				<linearGradient id="SVGID_2_" gradientUnits="userSpaceOnUse" x1="1.3076" y1="21.3021" x2="55.7668" y2="21.3021" gradientTransform="matrix(1 0 0 -1 0 48)">
				<stop  offset="0" style="stop-color:#D0E8F8"/>
				<stop  offset="1" style="stop-color:#E1EEF9"/>
			</linearGradient>
			<path class="st1" d="M45.5,44.2c5.7,0.2,10.4-4.3,10.6-9.9s-4.3-10.4-9.9-10.6c-0.2,0-0.4,0-0.6,0h-0.1c-1-9-9-15.5-18-14.5
				c-5.8,0.6-10.8,4.3-13.2,9.6H14c-7,0-12.7,5.7-12.7,12.7S7,44.2,14,44.2L45.5,44.2z"/>
			<path class="st2" d="M59.2,44.2c3.6,0,6.4-2.9,6.4-6.4s-2.9-6.4-6.4-6.4h-0.1c-0.6-5.6-5.7-9.7-11.4-9c-3.6,0.4-6.7,2.7-8.2,6
				h-0.2c-4.4,0-8,3.6-8,8c0,4.4,3.6,8,8,8H59.2z"/>
			
				<linearGradient id="SVGID_3_" gradientUnits="userSpaceOnUse" x1="59.0678" y1="40.0812" x2="62.5961" y2="43.6096" gradientTransform="matrix(1 0 0 -1 0 48)">
				<stop  offset="0" style="stop-color:#FDB728"/>
				<stop  offset="1" style="stop-color:#FFCD23"/>
			</linearGradient>
			<path class="st3" d="M61.3,8.9c-0.3,1-0.7,1-1,0c-0.4-1-1.2-1.9-2.2-2.2c-1-0.3-1-0.7,0-1c1.1-0.3,1.9-1.2,2.2-2.2
				c0.3-1,0.7-1,1,0c0.3,1.1,1.2,1.9,2.2,2.2c1,0.3,1,0.7,0,1C62.5,7,61.7,7.8,61.3,8.9z"/>
			
				<linearGradient id="SVGID_4_" gradientUnits="userSpaceOnUse" x1="6.3624" y1="37.0397" x2="9.2166" y2="39.8938" gradientTransform="matrix(1 0 0 -1 0 48)">
				<stop  offset="0" style="stop-color:#FDB728"/>
				<stop  offset="1" style="stop-color:#FFCD23"/>
			</linearGradient>
			<path class="st4" d="M8.2,11.7c-0.2,0.8-0.6,0.8-0.8,0c-0.3-0.9-1-1.5-1.8-1.8c-0.8-0.2-0.8-0.6,0-0.8c0.9-0.3,1.5-1,1.8-1.8
				c0.2-0.8,0.6-0.8,0.8,0C8.5,8.2,9.1,8.9,10,9.2c0.8,0.2,0.8,0.6,0,0.8C9.1,10.2,8.5,10.9,8.2,11.7z"/>
		</g>
	</g>
</g>
</svg>
