<?xml version="1.0" encoding="utf-8"?>
<!-- Generator: Adobe Illustrator 24.1.1, SVG Export Plug-In . SVG Version: 6.00 Build 0)  -->
<svg version="1.1" id="Lager_1" xmlns="http://www.w3.org/2000/svg" xmlns:xlink="http://www.w3.org/1999/xlink" x="0px" y="0px"
	 viewBox="0 0 66.9 36.4" style="enable-background:new 0 0 66.9 36.4;" xml:space="preserve">
<style type="text/css">
	.st0{fill:#FFFFFF;stroke:#2D3748;stroke-miterlimit:10;}
	.st1{fill:url(#SVGID_1_);stroke:#2D3748;stroke-miterlimit:10;}
</style>
<g id="Lager_2_1_">
	<g id="Icons">
		<g id="Mostly_Cloudy">
			<path class="st0" d="M45.5,35.7c5.6,0.2,10.4-4.3,10.5-9.9c0.2-5.6-4.3-10.4-9.9-10.5c-0.2,0-0.4,0-0.6,0h-0.1
				c-1-8.9-9-15.4-17.9-14.4c-5.8,0.6-10.8,4.3-13.1,9.6h-0.2C7.1,10.4,1.4,16,1.4,23s5.7,12.6,12.6,12.6H45.5z"/>
			
				<linearGradient id="SVGID_1_" gradientUnits="userSpaceOnUse" x1="38.5941" y1="-0.1937" x2="58.0594" y2="19.2812" gradientTransform="matrix(1 0 0 -1 0 38)">
				<stop  offset="0" style="stop-color:#D0E8F8"/>
				<stop  offset="1" style="stop-color:#E1EEF9"/>
			</linearGradient>
			<path class="st1" d="M59.1,35.7c3.5,0.1,6.5-2.6,6.7-6.2c0.1-3.5-2.6-6.5-6.2-6.7c-0.2,0-0.3,0-0.5,0H59c-0.6-5.6-5.7-9.7-11.3-9
				c-3.6,0.4-6.7,2.7-8.2,6h-0.2c-4.4,0-7.9,3.6-7.9,7.9c0,4.4,3.6,7.9,7.9,7.9L59.1,35.7z"/>
		</g>
	</g>
</g>
</svg>
