<?xml version="1.0" encoding="utf-8"?>
<!-- Generator: Adobe Illustrator 24.1.1, SVG Export Plug-In . SVG Version: 6.00 Build 0)  -->
<svg version="1.1" id="Lager_1" xmlns="http://www.w3.org/2000/svg" xmlns:xlink="http://www.w3.org/1999/xlink" x="0px" y="0px"
	 viewBox="0 0 66.9 36.4" style="enable-background:new 0 0 66.9 36.4;" xml:space="preserve">
<style type="text/css">
	.st0{fill:#FFFFFF;stroke:#2D3748;stroke-miterlimit:10;}
	.st1{fill:url(#SVGID_1_);stroke:#2D3748;stroke-miterlimit:10;}
</style>
<g id="Lager_2_1_">
	<g id="Icons">
		<g id="Mostly_Cloudy">
			<path class="st0" d="M45.3,35.4c5.6,0.2,10.2-4.2,10.4-9.8s-4.2-10.2-9.8-10.4c-0.2,0-0.4,0-0.6,0h-0.1
				c-1-8.8-8.9-15.2-17.7-14.2c-5.7,0.6-10.6,4.2-12.9,9.4h-0.2C7.5,10.5,1.9,16.1,1.9,23s5.6,12.5,12.5,12.5H45.3z"/>
			
				<linearGradient id="SVGID_1_" gradientUnits="userSpaceOnUse" x1="38.521" y1="9.825858e-02" x2="57.7022" y2="19.2888" gradientTransform="matrix(1 0 0 -1 0 38)">
				<stop  offset="0" style="stop-color:#D0E8F8"/>
				<stop  offset="1" style="stop-color:#E1EEF9"/>
			</linearGradient>
			<path class="st1" d="M58.7,35.4c3.5,0.1,6.4-2.6,6.6-6.1c0.1-3.5-2.6-6.4-6.1-6.6c-0.2,0-0.3,0-0.5,0h-0.1
				c-0.6-5.5-5.6-9.5-11.2-8.9c-3.5,0.4-6.6,2.6-8.1,5.9h-0.2c-4.3,0-7.8,3.5-7.8,7.8c0,4.3,3.5,7.8,7.8,7.8L58.7,35.4z"/>
		</g>
	</g>
</g>
</svg>
