<?xml version="1.0" encoding="utf-8"?>
<!-- Generator: Adobe Illustrator 24.1.1, SVG Export Plug-In . SVG Version: 6.00 Build 0)  -->
<svg version="1.1" id="Lager_1" xmlns="http://www.w3.org/2000/svg" xmlns:xlink="http://www.w3.org/1999/xlink" x="0px" y="0px"
	 viewBox="0 0 66.9 36.4" style="enable-background:new 0 0 66.9 36.4;" xml:space="preserve">
<style type="text/css">
	.st0{fill:#FFFFFF;stroke:#2D3748;stroke-miterlimit:10;}
	.st1{fill:url(#SVGID_1_);stroke:#2D3748;stroke-miterlimit:10;}
</style>
<g id="Lager_2_1_">
	<g id="Icons">
		<g id="Mostly_Cloudy">
			<path class="st0" d="M45.1,35.1c5.5,0.2,10-4.1,10.2-9.6c0.2-5.5-4.1-10-9.6-10.2c-0.2,0-0.4,0-0.6,0H45
				C44,6.7,36.3,0.5,27.6,1.4C22.1,2,17.2,5.5,15,10.6h-0.2C8,10.6,2.5,16.1,2.5,22.9S8,35.1,14.7,35.1H45.1z"/>
			
				<linearGradient id="SVGID_1_" gradientUnits="userSpaceOnUse" x1="38.4236" y1="0.4876" x2="57.2259" y2="19.2991" gradientTransform="matrix(1 0 0 -1 0 38)">
				<stop  offset="0" style="stop-color:#D0E8F8"/>
				<stop  offset="1" style="stop-color:#E1EEF9"/>
			</linearGradient>
			<path class="st1" d="M58.2,35.1c3.4,0.1,6.3-2.5,6.4-6c0.1-3.4-2.5-6.3-6-6.4c-0.2,0-0.3,0-0.5,0h-0.1c-0.6-5.4-5.5-9.3-10.9-8.7
				c-3.5,0.4-6.5,2.6-7.9,5.8h-0.1c-4.2,0-7.7,3.4-7.7,7.7c0,4.2,3.4,7.7,7.7,7.7L58.2,35.1z"/>
		</g>
	</g>
</g>
</svg>
