<?xml version="1.0" encoding="utf-8"?>
<!-- Generator: Adobe Illustrator 24.1.1, SVG Export Plug-In . SVG Version: 6.00 Build 0)  -->
<svg version="1.1" id="Lager_1" xmlns="http://www.w3.org/2000/svg" xmlns:xlink="http://www.w3.org/1999/xlink" x="0px" y="0px"
	 viewBox="0 0 66.9 36.4" style="enable-background:new 0 0 66.9 36.4;" xml:space="preserve">
<style type="text/css">
	.st0{fill:#FFFFFF;stroke:#2D3748;stroke-miterlimit:10;}
	.st1{fill:url(#SVGID_1_);stroke:#2D3748;stroke-miterlimit:10;}
</style>
<g id="Lager_2_1_">
	<g id="Icons">
		<g id="Mostly_Cloudy">
			<path class="st0" d="M45.4,35.6c5.6,0.2,10.3-4.2,10.5-9.9S51.7,15.4,46,15.3c-0.2,0-0.4,0-0.6,0h-0.1c-1-8.9-9-15.3-17.9-14.4
				c-5.7,0.6-10.7,4.3-13.1,9.5h-0.2C7.2,10.4,1.6,16.1,1.6,23s5.6,12.6,12.6,12.6H45.4z"/>
			
				<linearGradient id="SVGID_1_" gradientUnits="userSpaceOnUse" x1="38.5697" y1="-9.639084e-02" x2="57.9403" y2="19.2837" gradientTransform="matrix(1 0 0 -1 0 38)">
				<stop  offset="0" style="stop-color:#D0E8F8"/>
				<stop  offset="1" style="stop-color:#E1EEF9"/>
			</linearGradient>
			<path class="st1" d="M59,35.6c3.5,0.1,6.5-2.6,6.6-6.1c0.1-3.5-2.6-6.5-6.1-6.6c-0.2,0-0.3,0-0.5,0h-0.1c-0.6-5.6-5.7-9.6-11.3-9
				c-3.6,0.4-6.7,2.7-8.1,5.9h-0.2c-4.4,0-7.9,3.5-7.9,7.9c0,4.4,3.5,7.9,7.9,7.9L59,35.6z"/>
		</g>
	</g>
</g>
</svg>
