<?xml version="1.0" encoding="utf-8"?>
<!-- Generator: Adobe Illustrator 24.1.1, SVG Export Plug-In . SVG Version: 6.00 Build 0)  -->
<svg version="1.1" id="Lager_1" xmlns="http://www.w3.org/2000/svg" xmlns:xlink="http://www.w3.org/1999/xlink" x="0px" y="0px"
	 viewBox="0 0 66.9 60" style="enable-background:new 0 0 66.9 60;" xml:space="preserve">
<style type="text/css">
	.st0{fill:#FFFFFF;stroke:#2D3748;stroke-miterlimit:10;}
	.st1{fill:url(#SVGID_1_);stroke:#2D3748;stroke-miterlimit:10;}
	.st2{fill:url(#SVGID_2_);stroke:#2D3748;stroke-miterlimit:10;}
	.st3{fill:url(#SVGID_3_);stroke:#2D3748;stroke-miterlimit:10;}
	.st4{fill:url(#SVGID_4_);stroke:#2D3748;stroke-miterlimit:10;}
	.st5{fill:url(#SVGID_5_);stroke:#2D3748;stroke-miterlimit:10;}
	.st6{fill:url(#SVGID_6_);stroke:#2D3748;stroke-miterlimit:10;}
	.st7{fill:url(#SVGID_7_);stroke:#2D3748;stroke-miterlimit:10;}
</style>
<g id="Lager_2_1_">
	<g id="Icons">
		<g id="Drizzle">
			<path class="st0" d="M45.7,36.3c5.7,0.2,10.5-4.3,10.7-10.1c0.2-5.7-4.3-10.5-10.1-10.7c-0.2,0-0.4,0-0.6,0h-0.1
				c-1-9.1-9.2-15.7-18.2-14.7c-5.9,0.6-11,4.3-13.4,9.7h-0.2c-7.1,0-12.9,5.8-12.9,12.9s5.8,12.9,12.9,12.9
				C14.3,36.4,45.7,36.3,45.7,36.3z"/>
			
				<linearGradient id="SVGID_1_" gradientUnits="userSpaceOnUse" x1="38.6802" y1="23.1614" x2="58.4803" y2="42.9713" gradientTransform="matrix(1 0 0 -1 0 62)">
				<stop  offset="0" style="stop-color:#D0E8F8"/>
				<stop  offset="1" style="stop-color:#E1EEF9"/>
			</linearGradient>
			<path class="st1" d="M59.5,36.3c3.6,0.1,6.6-2.7,6.8-6.3c0.1-3.6-2.7-6.6-6.3-6.8c-0.2,0-0.3,0-0.5,0h-0.1
				c-0.6-5.7-5.8-9.8-11.5-9.2c-3.7,0.4-6.8,2.7-8.3,6.1h-0.2c-4.5,0-8.1,3.6-8.1,8.1c0,4.5,3.6,8.1,8.1,8.1L59.5,36.3z"/>
			
				<linearGradient id="SVGID_2_" gradientUnits="userSpaceOnUse" x1="8.305" y1="14.2138" x2="15.019" y2="14.2138" gradientTransform="matrix(1 0 0 -1 0 62)">
				<stop  offset="0" style="stop-color:#00AEEF"/>
				<stop  offset="1" style="stop-color:#00BDF2"/>
			</linearGradient>
			<path class="st2" d="M10.3,52.2c-0.3,0-0.7-0.1-1-0.3c-0.9-0.5-1.2-1.7-0.7-2.7l2.8-4.9c0.5-1,1.7-1.3,2.6-0.8
				c1,0.5,1.3,1.7,0.8,2.6c0,0-0.1,0.1-0.1,0.1l-2.8,4.9C11.6,51.8,11,52.2,10.3,52.2z"/>
			
				<linearGradient id="SVGID_3_" gradientUnits="userSpaceOnUse" x1="24.0111" y1="14.2139" x2="30.7154" y2="14.2139" gradientTransform="matrix(1 0 0 -1 0 62)">
				<stop  offset="0" style="stop-color:#00AEEF"/>
				<stop  offset="1" style="stop-color:#00BDF2"/>
			</linearGradient>
			<path class="st3" d="M26,52.2c-0.3,0-0.7-0.1-1-0.3c-0.9-0.5-1.3-1.7-0.7-2.7c0,0,0,0,0,0l2.8-4.9c0.5-1,1.7-1.3,2.6-0.8
				c1,0.5,1.3,1.7,0.8,2.6c0,0-0.1,0.1-0.1,0.1l-2.8,4.9C27.3,51.8,26.6,52.2,26,52.2z"/>
			
				<linearGradient id="SVGID_4_" gradientUnits="userSpaceOnUse" x1="39.7095" y1="14.1795" x2="46.4138" y2="14.1795" gradientTransform="matrix(1 0 0 -1 0 62)">
				<stop  offset="0" style="stop-color:#00AEEF"/>
				<stop  offset="1" style="stop-color:#00BDF2"/>
			</linearGradient>
			<path class="st4" d="M41.7,52.2c-1.1,0-2-0.9-2-1.9c0-0.3,0.1-0.7,0.3-1l2.8-4.9c0.5-0.9,1.7-1.3,2.7-0.7
				c0.9,0.5,1.3,1.7,0.7,2.7l0,0l-2.8,4.9C43,51.8,42.4,52.2,41.7,52.2z"/>
			
				<linearGradient id="SVGID_5_" gradientUnits="userSpaceOnUse" x1="13.1773" y1="7.188" x2="19.8912" y2="7.188" gradientTransform="matrix(1 0 0 -1 0 62)">
				<stop  offset="0" style="stop-color:#00AEEF"/>
				<stop  offset="1" style="stop-color:#00BDF2"/>
			</linearGradient>
			<path class="st5" d="M15.1,59.2c-0.3,0-0.7-0.1-1-0.3c-0.9-0.5-1.2-1.7-0.7-2.7l2.8-4.9c0.5-1,1.7-1.3,2.6-0.8
				c1,0.5,1.3,1.7,0.8,2.6c0,0-0.1,0.1-0.1,0.1l-2.8,4.9C16.5,58.9,15.8,59.2,15.1,59.2z"/>
			
				<linearGradient id="SVGID_6_" gradientUnits="userSpaceOnUse" x1="29.3706" y1="7.1537" x2="36.0748" y2="7.1537" gradientTransform="matrix(1 0 0 -1 0 62)">
				<stop  offset="0" style="stop-color:#00AEEF"/>
				<stop  offset="1" style="stop-color:#00BDF2"/>
			</linearGradient>
			<path class="st6" d="M31.3,59.2c-1.1,0-1.9-0.9-1.9-2c0-0.3,0.1-0.7,0.3-1l2.8-4.9c0.5-0.9,1.7-1.3,2.7-0.7
				c0.9,0.5,1.3,1.7,0.7,2.7l0,0L33,58.3C32.7,58.9,32,59.2,31.3,59.2z"/>
			
				<linearGradient id="SVGID_7_" gradientUnits="userSpaceOnUse" x1="45.5563" y1="7.1537" x2="52.2564" y2="7.1537" gradientTransform="matrix(1 0 0 -1 0 62)">
				<stop  offset="0" style="stop-color:#00AEEF"/>
				<stop  offset="1" style="stop-color:#00BDF2"/>
			</linearGradient>
			<path class="st7" d="M47.5,59.2c-1.1,0-2-0.9-2-1.9c0-0.3,0.1-0.7,0.3-1l2.8-4.9c0.5-0.9,1.7-1.3,2.7-0.7
				c0.9,0.5,1.3,1.7,0.7,2.7l0,0l-2.8,4.9C48.8,58.9,48.2,59.2,47.5,59.2z"/>
		</g>
	</g>
</g>
</svg>
