<?xml version="1.0" encoding="utf-8"?>
<!-- Generator: Adobe Illustrator 24.1.1, SVG Export Plug-In . SVG Version: 6.00 Build 0)  -->
<svg version="1.1" id="Lager_1" xmlns="http://www.w3.org/2000/svg" xmlns:xlink="http://www.w3.org/1999/xlink" x="0px" y="0px"
	 viewBox="0 0 67 67.9" style="enable-background:new 0 0 67 67.9;" xml:space="preserve">
<style type="text/css">
	.st0{fill:url(#SVGID_1_);stroke:#2D3748;stroke-miterlimit:10;}
	.st1{fill:url(#SVGID_2_);stroke:#2D3748;stroke-miterlimit:10;}
	.st2{fill:#FFFFFF;stroke:#2D3748;stroke-miterlimit:10;}
	.st3{fill:url(#SVGID_3_);stroke:#2D3748;stroke-miterlimit:10;}
	.st4{fill:url(#SVGID_4_);stroke:#2D3748;stroke-miterlimit:10;}
	.st5{fill:url(#SVGID_5_);stroke:#2D3748;stroke-miterlimit:10;}
	.st6{fill:url(#SVGID_6_);stroke:#2D3748;stroke-miterlimit:10;}
	.st7{fill:url(#SVGID_7_);stroke:#2D3748;stroke-miterlimit:10;}
	.st8{fill:url(#SVGID_8_);stroke:#2D3748;stroke-miterlimit:10;}
</style>
<g id="Lager_2_1_">
	<g id="Icons">
		<g id="Drizzle_Night">
			
				<linearGradient id="SVGID_1_" gradientUnits="userSpaceOnUse" x1="42.3941" y1="45.4378" x2="57.6516" y2="60.6953" gradientTransform="matrix(1 0 0 -1 0 70)">
				<stop  offset="0" style="stop-color:#00AEEF"/>
				<stop  offset="1" style="stop-color:#00BDF2"/>
			</linearGradient>
			<path class="st0" d="M52.5,28.8c-7.9,0.1-14.3-6.3-14.4-14.1C38,8.2,42.3,2.5,48.6,0.7c0.3-0.1,0.5,0,0.7,0.2
				c0.2,0.2,0.3,0.5,0.2,0.7c-2,6.8,1.9,13.9,8.7,15.8c1.2,0.3,2.4,0.5,3.6,0.5c1.2,0,2.4-0.2,3.5-0.5c0.4-0.1,0.8,0,1,0.4
				c0.1,0.2,0.1,0.3,0,0.5C64.5,24.6,58.9,28.8,52.5,28.8z"/>
			
				<linearGradient id="SVGID_2_" gradientUnits="userSpaceOnUse" x1="12.273" y1="21.8545" x2="43.9322" y2="53.504" gradientTransform="matrix(1 0 0 -1 0 70)">
				<stop  offset="0" style="stop-color:#D0E8F8"/>
				<stop  offset="1" style="stop-color:#E1EEF9"/>
			</linearGradient>
			<path class="st1" d="M45.7,44.1c5.8,0,10.5-4.7,10.5-10.5s-4.7-10.5-10.5-10.5h-0.1c-1-9.1-9.2-15.7-18.4-14.7
				c-5.9,0.7-11,4.4-13.4,9.8h-0.2c-7.1,0-12.9,5.8-12.9,12.9s5.8,12.9,12.9,12.9L45.7,44.1z"/>
			<path class="st2" d="M39.5,44.2l20.2,0c3.6,0.1,6.7-2.7,6.8-6.3c0.1-3.6-2.7-6.7-6.3-6.8c-0.2,0-0.3,0-0.5,0h-0.1
				c-0.7-5.7-5.8-9.9-11.6-9.2c-3.7,0.4-6.8,2.7-8.4,6.1h-0.2c-4.5,0-8.1,3.6-8.1,8.1C31.4,40.5,35,44.1,39.5,44.2
				C39.5,44.2,39.5,44.2,39.5,44.2"/>
			
				<linearGradient id="SVGID_3_" gradientUnits="userSpaceOnUse" x1="10.6569" y1="14.3052" x2="17.3956" y2="14.3052" gradientTransform="matrix(1 0 0 -1 0 70)">
				<stop  offset="0" style="stop-color:#00AEEF"/>
				<stop  offset="1" style="stop-color:#00BDF2"/>
			</linearGradient>
			<path class="st3" d="M12.6,60.1c-0.3,0-0.7-0.1-1-0.3c-0.9-0.5-1.3-1.7-0.7-2.7l2.8-4.9c0.5-1,1.7-1.3,2.6-0.8
				c1,0.5,1.3,1.7,0.8,2.6c0,0-0.1,0.1-0.1,0.1l-2.8,4.9C14,59.8,13.3,60.1,12.6,60.1z"/>
			
				<linearGradient id="SVGID_4_" gradientUnits="userSpaceOnUse" x1="26.4209" y1="14.3052" x2="33.1499" y2="14.3052" gradientTransform="matrix(1 0 0 -1 0 70)">
				<stop  offset="0" style="stop-color:#00AEEF"/>
				<stop  offset="1" style="stop-color:#00BDF2"/>
			</linearGradient>
			<path class="st4" d="M28.4,60.1c-0.3,0-0.7-0.1-1-0.3c-0.9-0.5-1.3-1.7-0.7-2.7c0,0,0,0,0,0l2.8-4.9c0.5-1,1.7-1.3,2.6-0.8
				c1,0.5,1.3,1.7,0.8,2.6c0,0-0.1,0.1-0.1,0.1l-2.8,4.9C29.7,59.8,29.1,60.1,28.4,60.1z"/>
			
				<linearGradient id="SVGID_5_" gradientUnits="userSpaceOnUse" x1="42.1772" y1="14.2707" x2="48.9062" y2="14.2707" gradientTransform="matrix(1 0 0 -1 0 70)">
				<stop  offset="0" style="stop-color:#00AEEF"/>
				<stop  offset="1" style="stop-color:#00BDF2"/>
			</linearGradient>
			<path class="st5" d="M44.1,60.1c-1.1,0-2-0.9-2-1.9c0-0.3,0.1-0.7,0.3-1l2.8-4.9c0.5-0.9,1.7-1.3,2.7-0.7
				c0.9,0.5,1.3,1.7,0.7,2.7l0,0l-2.8,4.9C45.5,59.8,44.8,60.1,44.1,60.1z"/>
			
				<linearGradient id="SVGID_6_" gradientUnits="userSpaceOnUse" x1="15.5471" y1="7.2828" x2="22.2859" y2="7.2828" gradientTransform="matrix(1 0 0 -1 0 70)">
				<stop  offset="0" style="stop-color:#00AEEF"/>
				<stop  offset="1" style="stop-color:#00BDF2"/>
			</linearGradient>
			<path class="st6" d="M17.5,67.2c-0.3,0-0.7-0.1-1-0.3c-0.9-0.5-1.3-1.7-0.7-2.7l2.8-4.9c0.5-1,1.7-1.3,2.6-0.8
				c1,0.5,1.3,1.7,0.8,2.6c0,0-0.1,0.1-0.1,0.1l-2.8,4.9C18.9,66.8,18.2,67.2,17.5,67.2z"/>
			
				<linearGradient id="SVGID_7_" gradientUnits="userSpaceOnUse" x1="31.8002" y1="7.2483" x2="38.5291" y2="7.2483" gradientTransform="matrix(1 0 0 -1 0 70)">
				<stop  offset="0" style="stop-color:#00AEEF"/>
				<stop  offset="1" style="stop-color:#00BDF2"/>
			</linearGradient>
			<path class="st7" d="M33.7,67.2c-1.1,0-2-0.9-2-2c0-0.3,0.1-0.7,0.3-1l2.8-4.9c0.5-0.9,1.7-1.3,2.7-0.7s1.3,1.7,0.7,2.7l0,0
				l-2.8,4.9C35.1,66.8,34.4,67.2,33.7,67.2z"/>
			
				<linearGradient id="SVGID_8_" gradientUnits="userSpaceOnUse" x1="48.0455" y1="7.2483" x2="54.7744" y2="7.2483" gradientTransform="matrix(1 0 0 -1 0 70)">
				<stop  offset="0" style="stop-color:#00AEEF"/>
				<stop  offset="1" style="stop-color:#00BDF2"/>
			</linearGradient>
			<path class="st8" d="M50,67.2c-1.1,0-2-0.9-2-1.9c0-0.3,0.1-0.7,0.3-1l2.8-4.9c0.5-0.9,1.7-1.3,2.7-0.7s1.3,1.7,0.7,2.7l0,0
				l-2.8,4.9C51.3,66.8,50.7,67.2,50,67.2z"/>
		</g>
	</g>
</g>
</svg>
