<?xml version="1.0" encoding="utf-8"?>
<!-- Generator: Adobe Illustrator 24.1.1, SVG Export Plug-In . SVG Version: 6.00 Build 0)  -->
<svg version="1.1" id="Lager_1" xmlns="http://www.w3.org/2000/svg" xmlns:xlink="http://www.w3.org/1999/xlink" x="0px" y="0px"
	 viewBox="0 0 66.9 58.7" style="enable-background:new 0 0 66.9 58.7;" xml:space="preserve">
<style type="text/css">
	.st0{fill:url(#SVGID_1_);stroke:#2D3748;stroke-miterlimit:10;}
	.st1{fill:#FFFFFF;stroke:#2D3748;stroke-miterlimit:10;}
	.st2{fill:url(#SVGID_2_);stroke:#2D3748;stroke-miterlimit:10;}
	.st3{fill:url(#SVGID_3_);stroke:#2D3748;stroke-miterlimit:10;}
	.st4{fill:url(#SVGID_4_);stroke:#2D3748;stroke-miterlimit:10;}
	.st5{fill:url(#SVGID_5_);stroke:#2D3748;stroke-miterlimit:10;}
</style>
<g id="Lager_2_1_">
	<g id="Icons">
		<g id="Scattered_Showers">
			
				<linearGradient id="SVGID_1_" gradientUnits="userSpaceOnUse" x1="38.9054" y1="37.7186" x2="56.8352" y2="55.6483" gradientTransform="matrix(1 0 0 -1 0 60)">
				<stop  offset="0" style="stop-color:#FDB728"/>
				<stop  offset="1" style="stop-color:#FFCD23"/>
			</linearGradient>
			<circle class="st0" cx="47.9" cy="13.3" r="12.7"/>
			<path class="st1" d="M45.6,42.1c5.8,0,10.5-4.7,10.5-10.5s-4.7-10.5-10.5-10.5h-0.1c-1-9.1-9.2-15.7-18.4-14.7
				c-5.9,0.7-11,4.4-13.4,9.8h-0.2c-7.1,0-12.9,5.8-12.9,12.9s5.8,12.9,12.9,12.9L45.6,42.1z"/>
			
				<linearGradient id="SVGID_2_" gradientUnits="userSpaceOnUse" x1="38.565" y1="15.337" x2="58.4462" y2="35.228" gradientTransform="matrix(1 0 0 -1 0 60)">
				<stop  offset="0" style="stop-color:#D0E8F8"/>
				<stop  offset="1" style="stop-color:#E1EEF9"/>
			</linearGradient>
			<path class="st2" d="M39.4,42.1l20.2,0c3.6,0.1,6.7-2.7,6.8-6.3c0.1-3.6-2.7-6.7-6.3-6.8c-0.2,0-0.3,0-0.5,0h-0.1
				c-0.7-5.7-5.8-9.9-11.6-9.2c-3.7,0.4-6.8,2.7-8.4,6.1h-0.2c-4.5,0-8.1,3.6-8.1,8.1C31.2,38.5,34.9,42.1,39.4,42.1
				C39.4,42.1,39.4,42.1,39.4,42.1"/>
			
				<linearGradient id="SVGID_3_" gradientUnits="userSpaceOnUse" x1="10.7356" y1="6.3563" x2="17.466" y2="6.3563" gradientTransform="matrix(1 0 0 -1 0 60)">
				<stop  offset="0" style="stop-color:#00AEEF"/>
				<stop  offset="1" style="stop-color:#00BDF2"/>
			</linearGradient>
			<path class="st3" d="M12.7,58.1c-0.3,0-0.7-0.1-1-0.3c-0.9-0.5-1.3-1.7-0.7-2.7c0,0,0,0,0,0l2.8-4.9c0.5-1,1.7-1.3,2.6-0.8
				c1,0.5,1.3,1.7,0.8,2.6c0,0-0.1,0.1-0.1,0.1l-2.8,4.9C14,57.7,13.4,58.1,12.7,58.1z"/>
			
				<linearGradient id="SVGID_4_" gradientUnits="userSpaceOnUse" x1="24.0497" y1="6.3219" x2="30.7858" y2="6.3219" gradientTransform="matrix(1 0 0 -1 0 60)">
				<stop  offset="0" style="stop-color:#00AEEF"/>
				<stop  offset="1" style="stop-color:#00BDF2"/>
			</linearGradient>
			<path class="st4" d="M26,58.1c-1.1,0-2-0.9-2-2c0-0.3,0.1-0.7,0.3-1l2.8-4.9c0.5-0.9,1.7-1.3,2.7-0.7c0.9,0.5,1.3,1.7,0.7,2.7
				l-2.8,4.9C27.4,57.7,26.7,58.1,26,58.1z"/>
			
				<linearGradient id="SVGID_5_" gradientUnits="userSpaceOnUse" x1="38.3441" y1="6.3219" x2="45.0802" y2="6.3219" gradientTransform="matrix(1 0 0 -1 0 60)">
				<stop  offset="0" style="stop-color:#00AEEF"/>
				<stop  offset="1" style="stop-color:#00BDF2"/>
			</linearGradient>
			<path class="st5" d="M40.3,58.1c-1.1,0-2-0.9-2-2c0-0.3,0.1-0.7,0.3-1l2.8-4.9c0.5-0.9,1.7-1.3,2.7-0.7c0.9,0.5,1.3,1.7,0.7,2.7
				l0,0L42,57.1C41.6,57.7,41,58.1,40.3,58.1z"/>
		</g>
	</g>
</g>
</svg>
