<?xml version="1.0" encoding="utf-8"?>
<!-- Generator: Adobe Illustrator 24.1.1, SVG Export Plug-In . SVG Version: 6.00 Build 0)  -->
<svg version="1.1" id="Lager_1" xmlns="http://www.w3.org/2000/svg" xmlns:xlink="http://www.w3.org/1999/xlink" x="0px" y="0px"
	 viewBox="0 0 67 67" style="enable-background:new 0 0 67 67;" xml:space="preserve">
<style type="text/css">
	.st0{fill:url(#SVGID_1_);stroke:#2D3748;stroke-miterlimit:10;}
	.st1{fill:url(#SVGID_2_);stroke:#2D3748;stroke-miterlimit:10;}
	.st2{fill:#FFFFFF;stroke:#2D3748;stroke-miterlimit:10;}
	.st3{fill:url(#SVGID_3_);stroke:#2D3748;stroke-miterlimit:10;}
	.st4{fill:url(#SVGID_4_);stroke:#2D3748;stroke-miterlimit:10;}
	.st5{fill:url(#SVGID_5_);stroke:#2D3748;stroke-miterlimit:10;}
</style>
<g id="Lager_2_1_">
	<g id="Icons">
		<g id="Rain_Nght">
			
				<linearGradient id="SVGID_1_" gradientUnits="userSpaceOnUse" x1="42.3209" y1="43.3734" x2="57.4516" y2="58.5041" gradientTransform="matrix(1 0 0 -1 0 68)">
				<stop  offset="0" style="stop-color:#00AEEF"/>
				<stop  offset="1" style="stop-color:#00BDF2"/>
			</linearGradient>
			<path class="st0" d="M52.4,28.8c-7.8,0.1-14.2-6.2-14.3-14C38,8.4,42.3,2.7,48.4,1c0.3-0.1,0.5,0,0.7,0.2
				c0.2,0.2,0.3,0.5,0.2,0.7c-1.9,6.7,1.9,13.8,8.6,15.7c1.1,0.3,2.3,0.5,3.5,0.5c1.2,0,2.3-0.2,3.5-0.5c0.4-0.1,0.8,0,1,0.4
				c0.1,0.2,0.1,0.3,0,0.5C64.2,24.6,58.7,28.8,52.4,28.8z"/>
			
				<linearGradient id="SVGID_2_" gradientUnits="userSpaceOnUse" x1="12.4502" y1="19.9862" x2="43.8462" y2="51.3726" gradientTransform="matrix(1 0 0 -1 0 68)">
				<stop  offset="0" style="stop-color:#D0E8F8"/>
				<stop  offset="1" style="stop-color:#E1EEF9"/>
			</linearGradient>
			<path class="st1" d="M45.6,44C51.4,44,56,39.4,56,33.7s-4.6-10.4-10.4-10.4h-0.1c-1-9.1-9.2-15.6-18.2-14.6
				c-5.8,0.6-10.9,4.3-13.3,9.7h-0.2C6.7,18.5,1,24.2,1,31.3s5.7,12.8,12.8,12.8L45.6,44z"/>
			<path class="st2" d="M39.4,44.1l20,0c3.6,0.1,6.6-2.7,6.7-6.2c0.1-3.6-2.7-6.6-6.2-6.7c-0.2,0-0.3,0-0.5,0h-0.1
				c-0.6-5.7-5.8-9.8-11.5-9.1c-3.6,0.4-6.8,2.7-8.3,6h-0.2c-4.4,0-8,3.6-8,8C31.4,40.4,35,44.1,39.4,44.1
				C39.4,44.1,39.4,44.1,39.4,44.1"/>
			
				<linearGradient id="SVGID_3_" gradientUnits="userSpaceOnUse" x1="4.7157" y1="9.4053" x2="14.8901" y2="9.4053" gradientTransform="matrix(1 0 0 -1 0 68)">
				<stop  offset="0" style="stop-color:#00AEEF"/>
				<stop  offset="1" style="stop-color:#00BDF2"/>
			</linearGradient>
			<path class="st3" d="M6.6,66c-0.3,0-0.7-0.1-1-0.3C4.7,65.2,4.4,64,5,63.1c0,0,0,0,0,0l6.3-10.9c0.5-0.9,1.7-1.2,2.7-0.7
				s1.2,1.7,0.7,2.7L8.3,65C8,65.6,7.3,66,6.6,66z"/>
			
				<linearGradient id="SVGID_4_" gradientUnits="userSpaceOnUse" x1="15.5108" y1="9.4395" x2="25.6949" y2="9.4395" gradientTransform="matrix(1 0 0 -1 0 68)">
				<stop  offset="0" style="stop-color:#00AEEF"/>
				<stop  offset="1" style="stop-color:#00BDF2"/>
			</linearGradient>
			<path class="st4" d="M17.5,66c-1.1,0-1.9-0.9-1.9-1.9c0-0.3,0.1-0.7,0.3-1l6.3-10.9c0.5-0.9,1.7-1.3,2.6-0.8
				c0.9,0.5,1.3,1.7,0.8,2.6c0,0-0.1,0.1-0.1,0.1L19.1,65C18.8,65.6,18.2,66,17.5,66z"/>
			
				<linearGradient id="SVGID_5_" gradientUnits="userSpaceOnUse" x1="26.3079" y1="9.4395" x2="36.492" y2="9.4395" gradientTransform="matrix(1 0 0 -1 0 68)">
				<stop  offset="0" style="stop-color:#00AEEF"/>
				<stop  offset="1" style="stop-color:#00BDF2"/>
			</linearGradient>
			<path class="st5" d="M28.2,66c-1.1,0-1.9-0.9-1.9-1.9c0-0.3,0.1-0.7,0.3-1l6.3-10.9c0.5-0.9,1.7-1.3,2.6-0.8s1.3,1.7,0.8,2.6
				c0,0-0.1,0.1-0.1,0.1L29.9,65C29.6,65.6,28.9,66,28.2,66z"/>
		</g>
	</g>
</g>
</svg>
