<?xml version="1.0" encoding="utf-8"?>
<!-- Generator: Adobe Illustrator 24.1.1, SVG Export Plug-In . SVG Version: 6.00 Build 0)  -->
<svg version="1.1" id="Lager_1" xmlns="http://www.w3.org/2000/svg" xmlns:xlink="http://www.w3.org/1999/xlink" x="0px" y="0px"
	 viewBox="0 0 66.9 63.3" style="enable-background:new 0 0 66.9 63.3;" xml:space="preserve">
<style type="text/css">
	.st0{fill:url(#SVGID_1_);stroke:#2D3748;stroke-miterlimit:10;}
	.st1{fill:url(#SVGID_2_);stroke:#2D3748;stroke-miterlimit:10;}
	.st2{fill:#FFFFFF;stroke:#2D3748;stroke-miterlimit:10;}
	.st3{fill:url(#SVGID_3_);stroke:#2D3748;stroke-miterlimit:10;}
</style>
<g id="Lager_2_1_">
	<g id="Icons">
		<g id="Scattered_Thunderstorm">
			
				<linearGradient id="SVGID_1_" gradientUnits="userSpaceOnUse" x1="40.1175" y1="43.5498" x2="57.817" y2="61.2492" gradientTransform="matrix(1 0 0 -1 0 66)">
				<stop  offset="0" style="stop-color:#FDB728"/>
				<stop  offset="1" style="stop-color:#FFCD23"/>
			</linearGradient>
			<circle class="st0" cx="49" cy="13.6" r="12.5"/>
			
				<linearGradient id="SVGID_2_" gradientUnits="userSpaceOnUse" x1="16.3976" y1="7.9926" x2="34.9486" y2="26.5435" gradientTransform="matrix(1 0 0 -1 0 66)">
				<stop  offset="0" style="stop-color:#FDB728"/>
				<stop  offset="1" style="stop-color:#FFCD23"/>
			</linearGradient>
			<path class="st1" d="M27.8,36.7c-1.8,0.1-3.4,1-4.3,2.5L18.4,48c-0.8,1.4-0.1,2.4,1.4,2.3L24,50c1.6-0.1,2.3,1,1.5,2.3l-4.6,8.5
				c-0.8,1.4-0.4,1.7,0.9,0.7l16.7-13.7c1.2-1,1-1.8-0.7-1.7l-6.4,0.3c-1.6,0.1-2.2-1-1.4-2.4l2.8-4.8c0.8-1.4,0.1-2.5-1.4-2.5
				L27.8,36.7z"/>
			<path class="st2" d="M45.6,40.3c5.7,0,10.3-4.6,10.3-10.3c0-5.7-4.6-10.3-10.3-10.3c0,0,0,0,0,0h-0.1c-1-9-9.1-15.5-18.1-14.6
				c-5.8,0.6-10.9,4.3-13.2,9.7h-0.2C6.9,14.7,1,20.2,0.8,27.2s5.4,12.9,12.4,13.1c0.2,0,0.5,0,0.7,0H45.6z"/>
			
				<linearGradient id="SVGID_3_" gradientUnits="userSpaceOnUse" x1="38.5576" y1="23.1964" x2="58.1805" y2="42.8193" gradientTransform="matrix(1 0 0 -1 0 66)">
				<stop  offset="0" style="stop-color:#D0E8F8"/>
				<stop  offset="1" style="stop-color:#E1EEF9"/>
			</linearGradient>
			<path class="st3" d="M59.3,40.3c3.6,0.1,6.6-2.6,6.7-6.2c0.1-3.6-2.6-6.6-6.2-6.7c-0.2,0-0.3,0-0.5,0h-0.1
				c-0.6-5.7-5.8-9.7-11.4-9.1c-3.6,0.4-6.8,2.7-8.2,6h-0.2c-4.4-0.2-8.1,3.3-8.3,7.7c-0.2,4.4,3.3,8.1,7.7,8.3c0.2,0,0.4,0,0.6,0
				H59.3z"/>
		</g>
	</g>
</g>
</svg>
