<?xml version="1.0" encoding="utf-8"?>
<!-- Generator: Adobe Illustrator 24.1.1, SVG Export Plug-In . SVG Version: 6.00 Build 0)  -->
<svg version="1.1" id="Lager_1" xmlns="http://www.w3.org/2000/svg" xmlns:xlink="http://www.w3.org/1999/xlink" x="0px" y="0px"
	 viewBox="0 0 67 68.1" style="enable-background:new 0 0 67 68.1;" xml:space="preserve">
<style type="text/css">
	.st0{fill:url(#SVGID_1_);stroke:#2D3748;stroke-miterlimit:10;}
	.st1{fill:url(#SVGID_2_);stroke:#2D3748;stroke-miterlimit:10;}
	.st2{fill:url(#SVGID_3_);stroke:#2D3748;stroke-miterlimit:10;}
	.st3{fill:#FFFFFF;stroke:#2D3748;stroke-miterlimit:10;}
</style>
<g id="Lager_2_1_">
	<g id="Icons">
		<g id="Severe_Thunderstorm_Night">
			
				<linearGradient id="SVGID_1_" gradientUnits="userSpaceOnUse" x1="16.3113" y1="7.0816" x2="34.9646" y2="25.7349" gradientTransform="matrix(1 0 0 -1 0 70)">
				<stop  offset="0" style="stop-color:#FDB728"/>
				<stop  offset="1" style="stop-color:#FFCD23"/>
			</linearGradient>
			<path class="st0" d="M27.8,41.5c-1.8,0.1-3.4,1-4.4,2.5l-5.1,8.9c-0.8,1.4-0.1,2.4,1.5,2.3l4.2-0.3c1.6-0.1,2.3,1,1.5,2.3
				l-4.7,8.6c-0.8,1.4-0.4,1.7,0.9,0.7l16.8-13.8c1.2-1,1-1.8-0.7-1.7l-6.4,0.3c-1.6,0.1-2.3-1-1.5-2.4l2.8-4.9
				c0.8-1.4,0.1-2.5-1.5-2.5L27.8,41.5z"/>
			
				<linearGradient id="SVGID_2_" gradientUnits="userSpaceOnUse" x1="42.3309" y1="45.3677" x2="57.4788" y2="60.5156" gradientTransform="matrix(1 0 0 -1 0 70)">
				<stop  offset="0" style="stop-color:#00AEEF"/>
				<stop  offset="1" style="stop-color:#00BDF2"/>
			</linearGradient>
			<path class="st1" d="M52.4,28.8c-7.8,0.1-14.2-6.2-14.3-14C38,8.4,42.3,2.7,48.5,1c0.3-0.1,0.5,0,0.7,0.2
				c0.2,0.2,0.3,0.5,0.2,0.7c-2,6.7,1.9,13.8,8.7,15.7c1.2,0.3,2.3,0.5,3.5,0.5c1.2,0,2.4-0.2,3.5-0.5c0.4-0.1,0.8,0,1,0.4
				c0.1,0.2,0.1,0.3,0,0.5C64.3,24.6,58.7,28.8,52.4,28.8z"/>
			
				<linearGradient id="SVGID_3_" gradientUnits="userSpaceOnUse" x1="12.5136" y1="20.8004" x2="43.9455" y2="52.2324" gradientTransform="matrix(1 0 0 -1 0 70)">
				<stop  offset="0" style="stop-color:#D0E8F8"/>
				<stop  offset="1" style="stop-color:#E1EEF9"/>
			</linearGradient>
			<path class="st2" d="M45.6,45.2c5.7,0.2,10.5-4.3,10.7-10s-4.3-10.5-10-10.7c-0.2,0-0.4,0-0.6,0h-0.1c-1-9.1-9.1-15.6-18.2-14.6
				c-5.9,0.6-10.9,4.3-13.3,9.7h-0.2C6.7,19.5,1,25.3,1,32.4s5.7,12.8,12.8,12.8L45.6,45.2z"/>
			<path class="st3" d="M59.4,45.2c3.6,0.1,6.6-2.7,6.8-6.2c0.1-3.6-2.7-6.6-6.2-6.8c-0.2,0-0.3,0-0.5,0h-0.1
				c-0.6-5.7-5.8-9.8-11.5-9.1c-3.6,0.4-6.8,2.7-8.3,6.1h-0.2c-4.4,0-8,3.6-8,8.1c0,4.4,3.6,8,8,8L59.4,45.2z"/>
		</g>
	</g>
</g>
</svg>
