<?xml version="1.0" encoding="utf-8"?>
<!-- Generator: Adobe Illustrator 24.1.1, SVG Export Plug-In . SVG Version: 6.00 Build 0)  -->
<svg version="1.1" id="Lager_1" xmlns="http://www.w3.org/2000/svg" xmlns:xlink="http://www.w3.org/1999/xlink" x="0px" y="0px"
	 viewBox="0 0 66.9 65" style="enable-background:new 0 0 66.9 65;" xml:space="preserve">
<style type="text/css">
	.st0{fill:url(#SVGID_1_);stroke:#2D3748;stroke-width:0.75;stroke-miterlimit:10;}
	.st1{fill:url(#SVGID_2_);stroke:#2D3748;stroke-width:0.75;stroke-miterlimit:10;}
	.st2{fill:url(#SVGID_3_);stroke:#2D3748;stroke-width:0.75;stroke-miterlimit:10;}
	.st3{fill:url(#SVGID_4_);stroke:#2D3748;stroke-width:0.75;stroke-miterlimit:10;}
	.st4{fill:url(#SVGID_5_);stroke:#2D3748;stroke-width:0.75;stroke-miterlimit:10;}
	.st5{fill:url(#SVGID_6_);stroke:#2D3748;stroke-width:0.75;stroke-miterlimit:10;}
	.st6{fill:url(#SVGID_7_);stroke:#2D3748;stroke-width:0.75;stroke-miterlimit:10;}
	.st7{fill:url(#SVGID_8_);stroke:#2D3748;stroke-width:0.75;stroke-miterlimit:10;}
	.st8{fill:url(#SVGID_9_);stroke:#2D3748;stroke-width:0.75;stroke-miterlimit:10;}
	.st9{fill:url(#SVGID_10_);stroke:#2D3748;stroke-width:0.75;stroke-miterlimit:10;}
	.st10{fill:url(#SVGID_11_);stroke:#2D3748;stroke-width:0.75;stroke-miterlimit:10;}
	.st11{fill:url(#SVGID_12_);stroke:#2D3748;stroke-width:0.75;stroke-miterlimit:10;}
	.st12{fill:#FFFFFF;stroke:#2D3748;stroke-miterlimit:10;}
	.st13{fill:url(#SVGID_13_);stroke:#2D3748;stroke-miterlimit:10;}
</style>
<g id="Lager_2_1_">
	<g id="Icons">
		<g id="Snow">
			
				<linearGradient id="SVGID_1_" gradientUnits="userSpaceOnUse" x1="11.14" y1="19.7055" x2="15.14" y2="19.7055" gradientTransform="matrix(1 0 0 -1 0 66)">
				<stop  offset="0" style="stop-color:#D0E8F8"/>
				<stop  offset="1" style="stop-color:#E1EEF9"/>
			</linearGradient>
			<circle class="st0" cx="13.1" cy="46.3" r="2"/>
			
				<linearGradient id="SVGID_2_" gradientUnits="userSpaceOnUse" x1="21.14" y1="19.7055" x2="25.14" y2="19.7055" gradientTransform="matrix(1 0 0 -1 0 66)">
				<stop  offset="0" style="stop-color:#D0E8F8"/>
				<stop  offset="1" style="stop-color:#E1EEF9"/>
			</linearGradient>
			<circle class="st1" cx="23.1" cy="46.3" r="2"/>
			
				<linearGradient id="SVGID_3_" gradientUnits="userSpaceOnUse" x1="31.14" y1="19.7055" x2="35.14" y2="19.7055" gradientTransform="matrix(1 0 0 -1 0 66)">
				<stop  offset="0" style="stop-color:#D0E8F8"/>
				<stop  offset="1" style="stop-color:#E1EEF9"/>
			</linearGradient>
			<circle class="st2" cx="33.1" cy="46.3" r="2"/>
			
				<linearGradient id="SVGID_4_" gradientUnits="userSpaceOnUse" x1="41.14" y1="19.7055" x2="45.14" y2="19.7055" gradientTransform="matrix(1 0 0 -1 0 66)">
				<stop  offset="0" style="stop-color:#D0E8F8"/>
				<stop  offset="1" style="stop-color:#E1EEF9"/>
			</linearGradient>
			<circle class="st3" cx="43.1" cy="46.3" r="2"/>
			
				<linearGradient id="SVGID_5_" gradientUnits="userSpaceOnUse" x1="11.14" y1="3.4255" x2="15.14" y2="3.4255" gradientTransform="matrix(1 0 0 -1 0 66)">
				<stop  offset="0" style="stop-color:#D0E8F8"/>
				<stop  offset="1" style="stop-color:#E1EEF9"/>
			</linearGradient>
			<circle class="st4" cx="13.1" cy="62.6" r="2"/>
			
				<linearGradient id="SVGID_6_" gradientUnits="userSpaceOnUse" x1="21.14" y1="3.4255" x2="25.14" y2="3.4255" gradientTransform="matrix(1 0 0 -1 0 66)">
				<stop  offset="0" style="stop-color:#D0E8F8"/>
				<stop  offset="1" style="stop-color:#E1EEF9"/>
			</linearGradient>
			<circle class="st5" cx="23.1" cy="62.6" r="2"/>
			
				<linearGradient id="SVGID_7_" gradientUnits="userSpaceOnUse" x1="31.14" y1="3.4255" x2="35.14" y2="3.4255" gradientTransform="matrix(1 0 0 -1 0 66)">
				<stop  offset="0" style="stop-color:#D0E8F8"/>
				<stop  offset="1" style="stop-color:#E1EEF9"/>
			</linearGradient>
			<circle class="st6" cx="33.1" cy="62.6" r="2"/>
			
				<linearGradient id="SVGID_8_" gradientUnits="userSpaceOnUse" x1="41.14" y1="3.4255" x2="45.14" y2="3.4255" gradientTransform="matrix(1 0 0 -1 0 66)">
				<stop  offset="0" style="stop-color:#D0E8F8"/>
				<stop  offset="1" style="stop-color:#E1EEF9"/>
			</linearGradient>
			<circle class="st7" cx="43.1" cy="62.6" r="2"/>
			
				<linearGradient id="SVGID_9_" gradientUnits="userSpaceOnUse" x1="6.14" y1="11.4255" x2="10.14" y2="11.4255" gradientTransform="matrix(1 0 0 -1 0 66)">
				<stop  offset="0" style="stop-color:#D0E8F8"/>
				<stop  offset="1" style="stop-color:#E1EEF9"/>
			</linearGradient>
			<circle class="st8" cx="8.1" cy="54.6" r="2"/>
			
				<linearGradient id="SVGID_10_" gradientUnits="userSpaceOnUse" x1="16.14" y1="11.4255" x2="20.14" y2="11.4255" gradientTransform="matrix(1 0 0 -1 0 66)">
				<stop  offset="0" style="stop-color:#D0E8F8"/>
				<stop  offset="1" style="stop-color:#E1EEF9"/>
			</linearGradient>
			<circle class="st9" cx="18.1" cy="54.6" r="2"/>
			
				<linearGradient id="SVGID_11_" gradientUnits="userSpaceOnUse" x1="26.14" y1="11.4255" x2="30.14" y2="11.4255" gradientTransform="matrix(1 0 0 -1 0 66)">
				<stop  offset="0" style="stop-color:#D0E8F8"/>
				<stop  offset="1" style="stop-color:#E1EEF9"/>
			</linearGradient>
			<circle class="st10" cx="28.1" cy="54.6" r="2"/>
			
				<linearGradient id="SVGID_12_" gradientUnits="userSpaceOnUse" x1="36.14" y1="11.4255" x2="40.14" y2="11.4255" gradientTransform="matrix(1 0 0 -1 0 66)">
				<stop  offset="0" style="stop-color:#D0E8F8"/>
				<stop  offset="1" style="stop-color:#E1EEF9"/>
			</linearGradient>
			<circle class="st11" cx="38.1" cy="54.6" r="2"/>
			<path class="st12" d="M45.4,35.5c5.6,0.2,10.3-4.8,10.4-10.4S51.6,14.9,46,14.7c-0.2,0-0.4,0-0.6,0h-0.1
				C44.3,5.8,36.4,0,27.5,0.9c-5.7,0.6-10.7,3.7-13,8.9h-0.2C7.3,9.9,1.7,16.1,1.7,23c0,5.4,5.6,12.5,12.5,12.5H45.4z"/>
			
				<linearGradient id="SVGID_13_" gradientUnits="userSpaceOnUse" x1="38.5483" y1="28.2377" x2="58.0112" y2="47.7102" gradientTransform="matrix(1 0 0 -1 0 66)">
				<stop  offset="0" style="stop-color:#D0E8F8"/>
				<stop  offset="1" style="stop-color:#E1EEF9"/>
			</linearGradient>
			<path class="st13" d="M58.9,35.5c3.5,0.1,6.5-2.6,6.6-6.1c0.1-3.5-2.6-6.5-6.1-6.6c-0.2,0-0.3-0.6-0.5-0.6h-0.1
				c-0.6-5.6-5.7-9.6-11.2-8.9c-3.6,0.4-6.6,2.7-8.1,5.9h-0.2c-4.4,0-7.9,3.5-7.9,7.9c0,4.3,3.5,8.4,7.9,8.4L58.9,35.5z"/>
		</g>
	</g>
</g>
</svg>
