<?xml version="1.0" encoding="utf-8"?>
<!-- Generator: Adobe Illustrator 24.1.1, SVG Export Plug-In . SVG Version: 6.00 Build 0)  -->
<svg version="1.1" id="Lager_1" xmlns="http://www.w3.org/2000/svg" xmlns:xlink="http://www.w3.org/1999/xlink" x="0px" y="0px"
	 viewBox="0 0 68.1 73.5" style="enable-background:new 0 0 68.1 73.5;" xml:space="preserve">
<style type="text/css">
	.st0{fill:url(#SVGID_1_);stroke:#2D3748;stroke-miterlimit:10;}
	.st1{fill:url(#SVGID_2_);stroke:#2D3748;stroke-miterlimit:10;}
	.st2{fill:#FFFFFF;stroke:#2D3748;stroke-miterlimit:10;}
	.st3{fill:url(#SVGID_3_);stroke:#2D3748;stroke-width:0.75;stroke-miterlimit:10;}
	.st4{fill:url(#SVGID_4_);stroke:#2D3748;stroke-width:0.75;stroke-miterlimit:10;}
	.st5{fill:url(#SVGID_5_);stroke:#2D3748;stroke-width:0.75;stroke-miterlimit:10;}
	.st6{fill:url(#SVGID_6_);stroke:#2D3748;stroke-width:0.75;stroke-miterlimit:10;}
	.st7{fill:url(#SVGID_7_);stroke:#2D3748;stroke-width:0.75;stroke-miterlimit:10;}
	.st8{fill:url(#SVGID_8_);stroke:#2D3748;stroke-width:0.75;stroke-miterlimit:10;}
	.st9{fill:url(#SVGID_9_);stroke:#2D3748;stroke-width:0.75;stroke-miterlimit:10;}
	.st10{fill:url(#SVGID_10_);stroke:#2D3748;stroke-width:0.75;stroke-miterlimit:10;}
	.st11{fill:url(#SVGID_11_);stroke:#2D3748;stroke-width:0.75;stroke-miterlimit:10;}
	.st12{fill:url(#SVGID_12_);stroke:#2D3748;stroke-width:0.75;stroke-miterlimit:10;}
	.st13{fill:url(#SVGID_13_);stroke:#2D3748;stroke-width:0.75;stroke-miterlimit:10;}
	.st14{fill:url(#SVGID_14_);stroke:#2D3748;stroke-width:0.75;stroke-miterlimit:10;}
</style>
<g id="Lager_2_1_">
	<g id="Icons">
		<g id="Snow_Night">
			
				<linearGradient id="SVGID_1_" gradientUnits="userSpaceOnUse" x1="43.0382" y1="50.8058" x2="58.6382" y2="66.4058" gradientTransform="matrix(1 0 0 -1 0 76)">
				<stop  offset="0" style="stop-color:#00AEEF"/>
				<stop  offset="1" style="stop-color:#00BDF2"/>
			</linearGradient>
			<path class="st0" d="M53.4,29.5c-8.1,0.1-14.6-6.4-14.7-14.5c0-6.6,4.3-12.4,10.7-14.2c0.3-0.1,0.6,0,0.8,0.2
				c0.2,0.2,0.3,0.5,0.2,0.8c-2,6.9,2,14.2,8.9,16.2c1.2,0.3,2.4,0.5,3.6,0.5c1.2,0,2.4-0.2,3.6-0.5c0.4-0.2,0.8,0,1,0.4
				c0.1,0.2,0.1,0.3,0,0.5C65.6,25.2,59.9,29.5,53.4,29.5z"/>
			
				<linearGradient id="SVGID_2_" gradientUnits="userSpaceOnUse" x1="0.57" y1="48.9606" x2="57.24" y2="48.9606" gradientTransform="matrix(1 0 0 -1 0 76)">
				<stop  offset="0" style="stop-color:#D0E8F8"/>
				<stop  offset="1" style="stop-color:#E1EEF9"/>
			</linearGradient>
			<path class="st1" d="M46.6,45.3c5.9,0.2,10.8-4.4,11-10.3c0.2-5.9-4.4-10.8-10.3-11c-0.2,0-0.4,0-0.7,0h-0.1
				c-1-9.3-9.4-16.1-18.7-15.1c-6,0.7-11.2,4.5-13.7,10h-0.3c-7.3,0-13.2,5.9-13.2,13.2s5.9,13.2,13.2,13.2L46.6,45.3z"/>
			<path class="st2" d="M60.8,45.3c3.7,0,6.7-3,6.7-6.7c0-3.7-3-6.7-6.7-6.7h-0.1c-0.7-5.9-6-10.1-11.8-9.4c-3.7,0.4-7,2.8-8.5,6.2
				h-0.2c-4.6,0-8.3,3.7-8.3,8.3s3.7,8.3,8.3,8.3H60.8z"/>
			
				<linearGradient id="SVGID_3_" gradientUnits="userSpaceOnUse" x1="11.14" y1="21.483" x2="15.14" y2="21.483" gradientTransform="matrix(1 0 0 -1 0 76)">
				<stop  offset="0" style="stop-color:#D0E8F8"/>
				<stop  offset="1" style="stop-color:#E1EEF9"/>
			</linearGradient>
			<circle class="st3" cx="13.1" cy="54.5" r="2"/>
			
				<linearGradient id="SVGID_4_" gradientUnits="userSpaceOnUse" x1="21.14" y1="21.483" x2="25.14" y2="21.483" gradientTransform="matrix(1 0 0 -1 0 76)">
				<stop  offset="0" style="stop-color:#D0E8F8"/>
				<stop  offset="1" style="stop-color:#E1EEF9"/>
			</linearGradient>
			<circle class="st4" cx="23.1" cy="54.5" r="2"/>
			
				<linearGradient id="SVGID_5_" gradientUnits="userSpaceOnUse" x1="31.14" y1="21.483" x2="35.14" y2="21.483" gradientTransform="matrix(1 0 0 -1 0 76)">
				<stop  offset="0" style="stop-color:#D0E8F8"/>
				<stop  offset="1" style="stop-color:#E1EEF9"/>
			</linearGradient>
			<circle class="st5" cx="33.1" cy="54.5" r="2"/>
			
				<linearGradient id="SVGID_6_" gradientUnits="userSpaceOnUse" x1="41.14" y1="21.483" x2="45.14" y2="21.483" gradientTransform="matrix(1 0 0 -1 0 76)">
				<stop  offset="0" style="stop-color:#D0E8F8"/>
				<stop  offset="1" style="stop-color:#E1EEF9"/>
			</linearGradient>
			<circle class="st6" cx="43.1" cy="54.5" r="2"/>
			
				<linearGradient id="SVGID_7_" gradientUnits="userSpaceOnUse" x1="11.14" y1="5.203" x2="15.14" y2="5.203" gradientTransform="matrix(1 0 0 -1 0 76)">
				<stop  offset="0" style="stop-color:#D0E8F8"/>
				<stop  offset="1" style="stop-color:#E1EEF9"/>
			</linearGradient>
			<circle class="st7" cx="13.1" cy="70.8" r="2"/>
			
				<linearGradient id="SVGID_8_" gradientUnits="userSpaceOnUse" x1="21.14" y1="5.203" x2="25.14" y2="5.203" gradientTransform="matrix(1 0 0 -1 0 76)">
				<stop  offset="0" style="stop-color:#D0E8F8"/>
				<stop  offset="1" style="stop-color:#E1EEF9"/>
			</linearGradient>
			<circle class="st8" cx="23.1" cy="70.8" r="2"/>
			
				<linearGradient id="SVGID_9_" gradientUnits="userSpaceOnUse" x1="31.14" y1="5.203" x2="35.14" y2="5.203" gradientTransform="matrix(1 0 0 -1 0 76)">
				<stop  offset="0" style="stop-color:#D0E8F8"/>
				<stop  offset="1" style="stop-color:#E1EEF9"/>
			</linearGradient>
			<circle class="st9" cx="33.1" cy="70.8" r="2"/>
			
				<linearGradient id="SVGID_10_" gradientUnits="userSpaceOnUse" x1="41.14" y1="5.203" x2="45.14" y2="5.203" gradientTransform="matrix(1 0 0 -1 0 76)">
				<stop  offset="0" style="stop-color:#D0E8F8"/>
				<stop  offset="1" style="stop-color:#E1EEF9"/>
			</linearGradient>
			<circle class="st10" cx="43.1" cy="70.8" r="2"/>
			
				<linearGradient id="SVGID_11_" gradientUnits="userSpaceOnUse" x1="6.14" y1="13.203" x2="10.14" y2="13.203" gradientTransform="matrix(1 0 0 -1 0 76)">
				<stop  offset="0" style="stop-color:#D0E8F8"/>
				<stop  offset="1" style="stop-color:#E1EEF9"/>
			</linearGradient>
			<circle class="st11" cx="8.1" cy="62.8" r="2"/>
			
				<linearGradient id="SVGID_12_" gradientUnits="userSpaceOnUse" x1="16.14" y1="13.203" x2="20.14" y2="13.203" gradientTransform="matrix(1 0 0 -1 0 76)">
				<stop  offset="0" style="stop-color:#D0E8F8"/>
				<stop  offset="1" style="stop-color:#E1EEF9"/>
			</linearGradient>
			<circle class="st12" cx="18.1" cy="62.8" r="2"/>
			
				<linearGradient id="SVGID_13_" gradientUnits="userSpaceOnUse" x1="26.14" y1="13.203" x2="30.14" y2="13.203" gradientTransform="matrix(1 0 0 -1 0 76)">
				<stop  offset="0" style="stop-color:#D0E8F8"/>
				<stop  offset="1" style="stop-color:#E1EEF9"/>
			</linearGradient>
			<circle class="st13" cx="28.1" cy="62.8" r="2"/>
			
				<linearGradient id="SVGID_14_" gradientUnits="userSpaceOnUse" x1="36.14" y1="13.203" x2="40.14" y2="13.203" gradientTransform="matrix(1 0 0 -1 0 76)">
				<stop  offset="0" style="stop-color:#D0E8F8"/>
				<stop  offset="1" style="stop-color:#E1EEF9"/>
			</linearGradient>
			<circle class="st14" cx="38.1" cy="62.8" r="2"/>
		</g>
	</g>
</g>
</svg>
