<?xml version="1.0" encoding="utf-8"?>
<!-- Generator: Adobe Illustrator 24.1.1, SVG Export Plug-In . SVG Version: 6.00 Build 0)  -->
<svg version="1.1" id="Lager_1" xmlns="http://www.w3.org/2000/svg" xmlns:xlink="http://www.w3.org/1999/xlink" x="0px" y="0px"
	 viewBox="0 0 66.9 54.7" style="enable-background:new 0 0 66.9 54.7;" xml:space="preserve">
<style type="text/css">
	.st0{fill:#FFFFFF;stroke:#2D3748;stroke-miterlimit:10;}
	.st1{fill:url(#SVGID_1_);stroke:#2D3748;stroke-miterlimit:10;}
	.st2{fill:url(#SVGID_2_);stroke:#2D3748;stroke-miterlimit:10;}
	.st3{fill:url(#SVGID_3_);stroke:#2D3748;stroke-miterlimit:10;}
	.st4{fill:url(#SVGID_4_);stroke:#2D3748;stroke-miterlimit:10;}
	.st5{fill:url(#SVGID_5_);stroke:#2D3748;stroke-miterlimit:10;}
</style>
<g id="Lager_2_1_">
	<g id="Icons">
		<g id="Fog">
			<path class="st0" d="M46,35.6c5.7,0.2,10.4-4.3,10.6-9.9c0.2-5.7-4.3-10.4-9.9-10.6c-0.2,0-0.4,0-0.6,0h-0.1c-1-9-9-15.4-18-14.5
				C22.1,1.3,17.1,5,14.8,10.3h-0.2C7.5,10.3,1.9,16,1.9,23s5.7,12.7,12.7,12.7H46z"/>
			
				<linearGradient id="SVGID_1_" gradientUnits="userSpaceOnUse" x1="39.1135" y1="17.8249" x2="58.6166" y2="37.3376" gradientTransform="matrix(1 0 0 -1 0 56)">
				<stop  offset="0" style="stop-color:#D0E8F8"/>
				<stop  offset="1" style="stop-color:#E1EEF9"/>
			</linearGradient>
			<path class="st1" d="M59.7,35.6c3.5,0.1,6.5-2.6,6.7-6.2c0.1-3.5-2.6-6.5-6.2-6.7c-0.2,0-0.3,0-0.5,0h-0.1
				c-0.6-5.6-5.7-9.7-11.4-9c-3.6,0.4-6.7,2.7-8.2,6h-0.2c-4.4,0-8,3.6-8,8c0,4.4,3.6,8,8,8L59.7,35.6z"/>
			
				<linearGradient id="SVGID_2_" gradientUnits="userSpaceOnUse" x1="9.6397" y1="10.8175" x2="22.6397" y2="10.8175" gradientTransform="matrix(1 0 0 -1 0 56)">
				<stop  offset="0" style="stop-color:#00AEEF"/>
				<stop  offset="1" style="stop-color:#00BDF2"/>
			</linearGradient>
			<path class="st2" d="M21.1,46.7h-10c-0.8,0-1.5-0.7-1.5-1.5s0.7-1.5,1.5-1.5h10c0.8,0,1.5,0.7,1.5,1.5S22,46.7,21.1,46.7z"/>
			
				<linearGradient id="SVGID_3_" gradientUnits="userSpaceOnUse" x1="26.1397" y1="10.8175" x2="44.1397" y2="10.8175" gradientTransform="matrix(1 0 0 -1 0 56)">
				<stop  offset="0" style="stop-color:#00AEEF"/>
				<stop  offset="1" style="stop-color:#00BDF2"/>
			</linearGradient>
			<path class="st3" d="M42.6,46.7h-15c-0.8,0-1.5-0.7-1.5-1.5s0.7-1.5,1.5-1.5h15c0.8,0,1.5,0.7,1.5,1.5S43.5,46.7,42.6,46.7z"/>
			
				<linearGradient id="SVGID_4_" gradientUnits="userSpaceOnUse" x1="9.5935" y1="3.3707" x2="32.5935" y2="3.3707" gradientTransform="matrix(1 0 0 -1 0 56)">
				<stop  offset="0" style="stop-color:#00AEEF"/>
				<stop  offset="1" style="stop-color:#00BDF2"/>
			</linearGradient>
			<path class="st4" d="M31.1,54.1h-20c-0.8,0-1.5-0.7-1.5-1.5s0.7-1.5,1.5-1.5h20c0.8,0,1.5,0.7,1.5,1.5S31.9,54.1,31.1,54.1z"/>
			
				<linearGradient id="SVGID_5_" gradientUnits="userSpaceOnUse" x1="36.0935" y1="3.3707" x2="54.0935" y2="3.3707" gradientTransform="matrix(1 0 0 -1 0 56)">
				<stop  offset="0" style="stop-color:#00AEEF"/>
				<stop  offset="1" style="stop-color:#00BDF2"/>
			</linearGradient>
			<path class="st5" d="M52.6,54.1h-15c-0.8,0-1.5-0.7-1.5-1.5s0.7-1.5,1.5-1.5h15c0.8,0,1.5,0.7,1.5,1.5S53.4,54.1,52.6,54.1z"/>
		</g>
	</g>
</g>
</svg>
