<?xml version="1.0" encoding="utf-8"?>
<!-- Generator: Adobe Illustrator 24.1.1, SVG Export Plug-In . SVG Version: 6.00 Build 0)  -->
<svg version="1.1" id="Lager_1" xmlns="http://www.w3.org/2000/svg" xmlns:xlink="http://www.w3.org/1999/xlink" x="0px" y="0px"
	 viewBox="0 0 66.9 54.7" style="enable-background:new 0 0 66.9 54.7;" xml:space="preserve">
<style type="text/css">
	.st0{fill:#FFFFFF;stroke:#2D3748;stroke-miterlimit:10;}
	.st1{fill:url(#SVGID_1_);stroke:#2D3748;stroke-miterlimit:10;}
	.st2{fill:url(#SVGID_2_);stroke:#2D3748;stroke-miterlimit:10;}
	.st3{fill:url(#SVGID_3_);stroke:#2D3748;stroke-miterlimit:10;}
	.st4{fill:url(#SVGID_4_);stroke:#2D3748;stroke-miterlimit:10;}
	.st5{fill:url(#SVGID_5_);stroke:#2D3748;stroke-miterlimit:10;}
</style>
<g id="Lager_2_1_">
	<g id="Icons">
		<g id="Fog">
			<path class="st0" d="M45.5,35.7c5.7,0.2,10.4-4.3,10.6-9.9c0.2-5.7-4.3-10.4-9.9-10.6c-0.2,0-0.4,0-0.6,0h-0.1
				c-1-9-9-15.4-18-14.5C21.6,1.4,16.6,5,14.3,10.4H14C7,10.4,1.3,16,1.3,23S7,35.7,14,35.7H45.5z"/>
			
				<linearGradient id="SVGID_1_" gradientUnits="userSpaceOnUse" x1="38.6038" y1="17.7674" x2="58.1069" y2="37.2801" gradientTransform="matrix(1 0 0 -1 0 56)">
				<stop  offset="0" style="stop-color:#D0E8F8"/>
				<stop  offset="1" style="stop-color:#E1EEF9"/>
			</linearGradient>
			<path class="st1" d="M59.2,35.7c3.5,0.1,6.5-2.6,6.7-6.2c0.1-3.5-2.6-6.5-6.2-6.7c-0.2,0-0.3,0-0.5,0h-0.1
				c-0.6-5.6-5.7-9.7-11.4-9c-3.6,0.4-6.7,2.7-8.2,6h-0.2c-4.4,0-8,3.6-8,8c0,4.4,3.6,8,8,8L59.2,35.7z"/>
			
				<linearGradient id="SVGID_2_" gradientUnits="userSpaceOnUse" x1="9.13" y1="10.76" x2="22.13" y2="10.76" gradientTransform="matrix(1 0 0 -1 0 56)">
				<stop  offset="0" style="stop-color:#00AEEF"/>
				<stop  offset="1" style="stop-color:#00BDF2"/>
			</linearGradient>
			<path class="st2" d="M20.6,46.7h-10c-0.8,0-1.5-0.7-1.5-1.5s0.7-1.5,1.5-1.5h10c0.8,0,1.5,0.7,1.5,1.5S21.5,46.7,20.6,46.7z"/>
			
				<linearGradient id="SVGID_3_" gradientUnits="userSpaceOnUse" x1="25.63" y1="10.76" x2="43.63" y2="10.76" gradientTransform="matrix(1 0 0 -1 0 56)">
				<stop  offset="0" style="stop-color:#00AEEF"/>
				<stop  offset="1" style="stop-color:#00BDF2"/>
			</linearGradient>
			<path class="st3" d="M42.1,46.7h-15c-0.8,0-1.5-0.7-1.5-1.5s0.7-1.5,1.5-1.5h15c0.8,0,1.5,0.7,1.5,1.5S43,46.7,42.1,46.7z"/>
			
				<linearGradient id="SVGID_4_" gradientUnits="userSpaceOnUse" x1="9.0838" y1="3.3132" x2="32.0838" y2="3.3132" gradientTransform="matrix(1 0 0 -1 0 56)">
				<stop  offset="0" style="stop-color:#00AEEF"/>
				<stop  offset="1" style="stop-color:#00BDF2"/>
			</linearGradient>
			<path class="st4" d="M30.6,54.2h-20c-0.8,0-1.5-0.7-1.5-1.5s0.7-1.5,1.5-1.5h20c0.8,0,1.5,0.7,1.5,1.5S31.4,54.2,30.6,54.2z"/>
			
				<linearGradient id="SVGID_5_" gradientUnits="userSpaceOnUse" x1="35.5838" y1="3.3132" x2="53.5838" y2="3.3132" gradientTransform="matrix(1 0 0 -1 0 56)">
				<stop  offset="0" style="stop-color:#00AEEF"/>
				<stop  offset="1" style="stop-color:#00BDF2"/>
			</linearGradient>
			<path class="st5" d="M52.1,54.2h-15c-0.8,0-1.5-0.7-1.5-1.5s0.7-1.5,1.5-1.5h15c0.8,0,1.5,0.7,1.5,1.5S52.9,54.2,52.1,54.2z"/>
		</g>
	</g>
</g>
</svg>
